<svg width="210" height="65" viewBox="0 0 210 65" fill="none" xmlns="http://www.w3.org/2000/svg">
<path fill-rule="evenodd" clip-rule="evenodd" d="M29.4154 31.2361C32.1557 27.7339 36.5439 25.4649 41.4899 25.4649C46.4649 25.4649 50.8754 27.7606 53.6125 31.298C53.4959 31.4118 53.3899 31.5298 53.2938 31.6476C52.7924 32.2645 52.4152 33.059 52.113 33.8659C51.5044 35.4887 51.0402 37.6085 50.6105 39.5935L50.5722 39.7719C50.1434 41.7533 49.7448 43.5959 49.2629 44.9638C49.0464 45.5783 48.8411 46.0128 48.659 46.291C48.469 46.0105 48.2534 45.5708 48.0253 44.9475C47.5098 43.5403 47.0763 41.6263 46.6167 39.5827L46.6018 39.5157V39.5157C46.1602 37.5527 45.6917 35.4699 45.1076 33.8756C44.8142 33.0747 44.4542 32.2881 43.9832 31.6769C43.5211 31.0772 42.7517 30.4003 41.6266 30.4003C40.5085 30.4003 39.7356 31.0698 39.2667 31.6629C38.7867 32.2701 38.4125 33.0534 38.1042 33.8547C37.4834 35.4682 36.9758 37.5789 36.5034 39.5666L36.4546 39.7719C35.9869 41.7409 35.5496 43.5818 35.0532 44.9523C34.8637 45.4757 34.6849 45.8739 34.5231 46.1583C34.3649 45.8752 34.1905 45.4797 34.0062 44.9607C33.53 43.6194 33.1128 41.8301 32.6648 39.9083L32.5864 39.5719C32.1222 37.583 31.6185 35.4685 30.9889 33.85C30.676 33.0457 30.2933 32.2584 29.7982 31.6484C29.686 31.5103 29.5586 31.3701 29.4154 31.2361ZM27.7569 33.9253C27.8874 34.1701 28.0254 34.4736 28.1682 34.8406C28.7132 36.2416 29.175 38.1533 29.6505 40.1905L29.743 40.5875C30.1759 42.4464 30.6263 44.38 31.1568 45.8739C31.4389 46.6684 31.7796 47.4466 32.2178 48.0514C32.6322 48.6235 33.3756 49.3623 34.5186 49.3623C35.6584 49.3623 36.4036 48.627 36.8208 48.0576C37.2627 47.4542 37.609 46.6769 37.8968 45.8818C38.4486 44.3584 38.9184 42.3794 39.368 40.4855V40.4854L39.4368 40.1959C39.9212 38.1574 40.3876 36.2419 40.9286 34.8358C41.1793 34.1843 41.4139 33.7305 41.6182 33.449C41.8118 33.7281 42.033 34.1747 42.2676 34.815C42.7832 36.2222 43.2163 38.1361 43.676 40.1798L43.691 40.2467C44.1325 42.2098 44.601 44.2926 45.1851 45.8867C45.4785 46.6879 45.8386 47.4745 46.3095 48.0855C46.7718 48.6854 47.541 49.3623 48.666 49.3623C49.797 49.3623 50.5634 48.6792 51.0202 48.074C51.484 47.4599 51.8327 46.6707 52.1144 45.8708C52.6559 44.3344 53.0864 42.3408 53.497 40.4444V40.4443L53.5558 40.169C53.9978 38.1278 54.422 36.2214 54.946 34.8246C55.0594 34.5208 55.1712 34.2617 55.2778 34.0441C56.0805 35.7921 56.5257 37.7223 56.5257 39.7513C56.5257 47.6413 49.7942 54.0377 41.4899 54.0377C33.1857 54.0377 26.4539 47.6413 26.4539 39.7513C26.4539 37.6762 26.9195 35.7044 27.7569 33.9253ZM41.4899 22.6077C31.5249 22.6077 23.4467 30.2831 23.4467 39.7513C23.4467 49.2194 31.5249 56.8948 41.4899 56.8948C51.4551 56.8948 59.5329 49.2194 59.5329 39.7513C59.5329 30.2831 51.4551 22.6077 41.4899 22.6077ZM41.8336 33.2098C41.8336 33.2101 41.8301 33.2128 41.8231 33.2167C41.8301 33.2114 41.8336 33.2095 41.8336 33.2098ZM41.418 33.2117C41.411 33.2077 41.4075 33.2049 41.4075 33.2045C41.4075 33.2042 41.4111 33.2062 41.418 33.2117ZM48.4373 46.5623C48.4373 46.5623 48.4406 46.5592 48.4471 46.5552C48.4406 46.5605 48.4373 46.5627 48.4373 46.5623ZM48.8746 46.5508C48.8815 46.5548 48.8853 46.5574 48.8853 46.5579C48.8853 46.5583 48.8815 46.5561 48.8746 46.5508ZM34.2105 46.5879C34.2104 46.5875 34.2148 46.5835 34.2234 46.5778C34.2148 46.5853 34.2105 46.5884 34.2105 46.5879ZM34.8195 46.5804C34.8281 46.5862 34.8324 46.5901 34.8324 46.5906C34.8323 46.591 34.828 46.5884 34.8195 46.5804Z" fill="#81818B"/>
<path d="M69.4958 49.9007L65.1205 35.6801H68.953L71.5481 45.9154L74.5652 35.6801H78.8503L81.868 45.9154L84.493 35.6801H88.3255L83.9197 49.9007H79.9066L76.7078 39.2639L73.5095 49.9007H69.4958Z" fill="#81818B"/>
<path d="M93.9488 50.2449C92.6615 50.2449 91.6052 50.0533 90.7804 49.6711C89.9562 49.2698 89.3424 48.7442 88.9398 48.0943C88.5376 47.4444 88.3365 46.7277 88.3365 45.9442C88.3365 44.6254 88.8794 43.5549 89.9656 42.733C91.0519 41.9112 92.682 41.5002 94.8544 41.5002H98.6565V41.1562C98.6565 40.1813 98.3646 39.4646 97.7813 39.0059C97.198 38.5471 96.4735 38.3178 95.6089 38.3178C94.824 38.3178 94.1399 38.4993 93.5566 38.8625C92.9734 39.2066 92.6111 39.7226 92.4704 40.4107H88.6983C88.7991 39.3786 89.1613 38.4802 89.7845 37.7157C90.4287 36.9512 91.2535 36.3682 92.2588 35.9668C93.2653 35.5463 94.3914 35.3361 95.6388 35.3361C97.7713 35.3361 99.4508 35.8425 100.678 36.8556C101.905 37.8686 102.519 39.3022 102.519 41.1562V49.9007H99.2292L98.8675 47.6072C98.425 48.3717 97.8012 49.0022 96.9969 49.4995C96.2121 49.9963 95.1962 50.2449 93.9488 50.2449ZM94.824 47.3776C95.9307 47.3776 96.7854 47.0334 97.3886 46.3455C98.0123 45.6575 98.405 44.8067 98.5662 43.7938H95.2765C94.2507 43.7938 93.5167 43.9754 93.0736 44.3386C92.6316 44.6824 92.41 45.1129 92.41 45.6287C92.41 46.1831 92.6316 46.6131 93.0736 46.9188C93.5167 47.2245 94.0995 47.3776 94.824 47.3776Z" fill="#81818B"/>
<path d="M108.599 49.9007L103.107 35.6801H107.15L110.952 46.4317L114.755 35.6801H118.798L113.276 49.9007H108.599Z" fill="#81818B"/>
<path d="M126.562 50.2449C125.054 50.2449 123.716 49.9388 122.549 49.3273C121.383 48.7155 120.468 47.8554 119.803 46.7467C119.139 45.6385 118.808 44.3577 118.808 42.905C118.808 41.4333 119.13 40.124 119.773 38.9772C120.437 37.8304 121.342 36.9416 122.489 36.3108C123.655 35.661 125.023 35.3361 126.593 35.3361C128.061 35.3361 129.359 35.6419 130.486 36.2535C131.612 36.8651 132.487 37.7061 133.111 38.7765C133.754 39.8277 134.077 41.0032 134.077 42.303C134.077 42.5132 134.066 42.733 134.046 42.9624C134.046 43.1918 134.036 43.4307 134.016 43.6792H122.64C122.72 44.7877 123.123 45.6575 123.847 46.2884C124.591 46.9188 125.487 47.2343 126.533 47.2343C127.317 47.2343 127.971 47.0719 128.494 46.7467C129.037 46.403 129.439 45.9632 129.701 45.4279H133.623C133.342 46.3264 132.869 47.1485 132.205 47.8939C131.561 48.6199 130.757 49.1933 129.791 49.614C128.846 50.0343 127.769 50.2449 126.562 50.2449ZM126.593 38.3178C125.648 38.3178 124.812 38.5758 124.088 39.0919C123.364 39.5888 122.901 40.3534 122.7 41.3855H130.153C130.093 40.4489 129.731 39.7035 129.067 39.1492C128.403 38.5949 127.579 38.3178 126.593 38.3178Z" fill="#81818B"/>
<path d="M136.118 49.9007V29.2578H139.98V49.9007H136.118Z" fill="#81818B"/>
<path d="M149.991 50.2449C148.483 50.2449 147.145 49.9388 145.978 49.3273C144.812 48.7155 143.897 47.8554 143.233 46.7467C142.568 45.6385 142.237 44.3577 142.237 42.905C142.237 41.4333 142.559 40.124 143.202 38.9772C143.866 37.8304 144.771 36.9416 145.918 36.3108C147.085 35.661 148.453 35.3361 150.022 35.3361C151.49 35.3361 152.788 35.6419 153.915 36.2535C155.041 36.8651 155.917 37.7061 156.54 38.7765C157.183 39.8277 157.506 41.0032 157.506 42.303C157.506 42.5132 157.495 42.733 157.475 42.9624C157.475 43.1918 157.465 43.4307 157.445 43.6792H146.069C146.149 44.7877 146.552 45.6575 147.276 46.2884C148.02 46.9188 148.916 47.2343 149.962 47.2343C150.746 47.2343 151.4 47.0719 151.923 46.7467C152.466 46.403 152.868 45.9632 153.13 45.4279H157.053C156.771 46.3264 156.298 47.1485 155.635 47.8939C154.99 48.6199 154.186 49.1933 153.22 49.614C152.275 50.0343 151.199 50.2449 149.991 50.2449ZM150.022 38.3178C149.077 38.3178 148.242 38.5758 147.517 39.0919C146.793 39.5888 146.331 40.3534 146.129 41.3855H153.582C153.522 40.4489 153.16 39.7035 152.496 39.1492C151.832 38.5949 151.008 38.3178 150.022 38.3178Z" fill="#81818B"/>
<path d="M165.733 50.2449C164.405 50.2449 163.238 50.044 162.233 49.6428C161.226 49.222 160.422 48.6487 159.818 47.9222C159.215 47.1962 158.853 46.3552 158.732 45.3996H162.625C162.745 45.9535 163.068 46.4317 163.591 46.833C164.133 47.2152 164.827 47.4064 165.672 47.4064C166.517 47.4064 167.131 47.244 167.513 46.9188C167.915 46.5941 168.117 46.2212 168.117 45.8008C168.117 45.189 167.835 44.778 167.272 44.5678C166.709 44.3386 165.924 44.1188 164.918 43.9085C164.275 43.7747 163.621 43.6123 162.957 43.4211C162.293 43.23 161.68 42.991 161.116 42.7044C160.573 42.3985 160.13 42.0163 159.788 41.5575C159.446 41.0797 159.276 40.4967 159.276 39.8086C159.276 38.5471 159.798 37.4864 160.845 36.6262C161.911 35.7661 163.399 35.3361 165.31 35.3361C167.081 35.3361 168.489 35.7279 169.535 36.5115C170.601 37.2952 171.235 38.3751 171.436 39.7513H167.785C167.563 38.7001 166.728 38.1744 165.281 38.1744C164.556 38.1744 163.993 38.3082 163.591 38.5758C163.208 38.8434 163.017 39.1779 163.017 39.5793C163.017 39.9998 163.309 40.3343 163.892 40.5828C164.476 40.8312 165.25 41.0606 166.216 41.2709C167.261 41.5002 168.217 41.7582 169.082 42.0449C169.967 42.3125 170.671 42.7235 171.195 43.2778C171.718 43.8129 171.979 44.5869 171.979 45.6C171.999 46.4795 171.757 47.2723 171.255 47.9797C170.752 48.6867 170.028 49.2411 169.082 49.6428C168.137 50.044 167.02 50.2449 165.733 50.2449Z" fill="#81818B"/>
<path d="M180.379 50.2449C179.052 50.2449 177.885 50.044 176.879 49.6428C175.873 49.222 175.069 48.6487 174.465 47.9222C173.862 47.1962 173.499 46.3552 173.379 45.3996H177.272C177.392 45.9535 177.714 46.4317 178.237 46.833C178.78 47.2152 179.474 47.4064 180.319 47.4064C181.164 47.4064 181.778 47.244 182.16 46.9188C182.562 46.5941 182.764 46.2212 182.764 45.8008C182.764 45.189 182.482 44.778 181.918 44.5678C181.355 44.3386 180.571 44.1188 179.565 43.9085C178.921 43.7747 178.267 43.6123 177.603 43.4211C176.94 43.23 176.326 42.991 175.763 42.7044C175.22 42.3985 174.777 42.0163 174.435 41.5575C174.093 41.0797 173.922 40.4967 173.922 39.8086C173.922 38.5471 174.445 37.4864 175.491 36.6262C176.558 35.7661 178.046 35.3361 179.957 35.3361C181.727 35.3361 183.135 35.7279 184.182 36.5115C185.247 37.2952 185.881 38.3751 186.083 39.7513H182.431C182.21 38.7001 181.375 38.1744 179.927 38.1744C179.202 38.1744 178.639 38.3082 178.237 38.5758C177.855 38.8434 177.664 39.1779 177.664 39.5793C177.664 39.9998 177.955 40.3343 178.539 40.5828C179.122 40.8312 179.896 41.0606 180.862 41.2709C181.908 41.5002 182.864 41.7582 183.729 42.0449C184.614 42.3125 185.318 42.7235 185.841 43.2778C186.364 43.8129 186.626 44.5869 186.626 45.6C186.646 46.4795 186.404 47.2723 185.901 47.9797C185.398 48.6867 184.675 49.2411 183.729 49.6428C182.783 50.044 181.667 50.2449 180.379 50.2449Z" fill="#81818B"/>
</svg>
